<svg xmlns="http://www.w3.org/2000/svg" aria-hidden="true" style="position:absolute;width:0;height:0;overflow:hidden">
    <defs>
        <symbol id="icon-burger" viewBox="0 0 46 32">
            <path d="M1.667 0h42.667v5.333H1.667V0zm0 13.333h42.667v5.333H1.667v-5.333zm0 13.334h42.667V32H1.667v-5.333z"/>
        </symbol>
        <symbol id="icon-logo" viewBox="0 0 145 32">
            <path d="M15.26.126c8.751-.817 16.506 5.621 17.313 14.373s-5.638 16.5-14.391 17.299C9.441 32.596 1.707 26.162.901 17.422S6.521.942 15.26.126zm3.173 29.989c7.813-.938 13.384-8.035 12.442-15.847S22.832.889 15.021 1.836C7.216 2.783 1.655 9.875 2.597 17.68c.942 7.806 8.03 13.371 15.836 12.434z"/>
            <path d="m22.961 7.685 1.831-.013c.036 5.283.038 10.567.008 15.851l-1.893.024-.003-9.927-.009-2.718c-1.057 2.007-2.258 3.936-3.401 5.893-.725 1.241-1.398 2.665-2.295 3.781a1.181 1.181 0 0 1-.669.033.99.99 0 0 1-.281-.118c-.484-.386-5.034-8.379-5.76-9.591.187 1.437.069 3.006.068 4.456l-.005 8.152-1.936.007c.06-5.275-.035-10.553.016-15.83l2.108.011c.937 1.676 1.943 3.316 2.915 4.973 1.033 1.76 2.039 3.541 3.136 5.262 1.116-2.039 2.365-4.015 3.565-6.006.85-1.41 1.654-2.896 2.606-4.239zM119.883 11.45c.374-.025.757-.035 1.132-.028 1.395.025 2.821.771 3.776 1.76 1.19 1.233 1.744 2.952 1.703 4.648-.04 1.726-.687 3.366-1.957 4.55-1.126 1.049-2.569 1.61-4.112 1.552-1.766-.066-2.938-.811-4.123-2.075-.046.724-.032 1.456-.039 2.182a327.89 327.89 0 0 1-.005 4.323c-.672.066-1.35.06-2.021-.019.11-2.231.013-4.515.014-6.752 0-3.327.053-6.663-.022-9.989l1.999-.008c-.039.742-.03 1.492-.041 2.236 1.083-1.351 1.987-2.003 3.696-2.379zm.866 10.698c1.243-.233 2.205-.74 2.935-1.812a4.798 4.798 0 0 0 .71-3.633c-.222-1.12-.886-2.179-1.862-2.791-.768-.482-1.599-.614-2.486-.589-1.232.233-2.23.671-2.969 1.745-.696 1.011-.995 2.451-.76 3.654a4.303 4.303 0 0 0 1.896 2.805c.789.496 1.621.639 2.535.623zM82.587 6.437c.326.335.427 1.218.621 1.691-2.097.88-5.138.699-6.825 2.31-1.009.964-1.249 2.296-1.271 3.624.902-1.115 1.891-2.018 3.371-2.265 1.495-.25 3.08.039 4.306.952 1.317.981 2.051 2.402 2.271 4.013.253 1.851-.208 3.596-1.344 5.074-.822.913-1.779 1.587-2.984 1.882-1.526.374-3.268.18-4.612-.654-1.533-.953-2.416-2.524-2.799-4.253-.572-2.584-.459-6.445 1.03-8.739 1.313-2.023 3.297-2.424 5.5-2.948.915-.218 1.818-.485 2.735-.688zM79.1 22.158c1.299-.192 2.265-.503 3.072-1.619.792-1.094 1.048-2.475.802-3.79-.198-1.061-.757-2.032-1.668-2.632a3.718 3.718 0 0 0-1.874-.612c-1.264.141-2.303.403-3.144 1.445-.789.979-1.127 2.3-.953 3.54.159 1.131.777 2.22 1.706 2.894.628.456 1.303.656 2.058.773zM54.169 7.242c.738-.074 1.507-.039 2.249-.044-.1 5.436.019 10.889-.012 16.328l-1.958-.02.003-9.617c-.005-1.102-.028-2.206.039-3.306-1.804 3.332-3.432 6.811-5.408 10.042l-1.272-.007c-1.947-3.191-3.566-6.63-5.366-9.909.07 1.504.023 3.031.024 4.537l.004 8.281c-.653-.017-1.303.026-1.956-.005l.001-9.906c.001-2.129-.04-4.272.076-6.399l2.178.001c.619 1.062 1.145 2.199 1.708 3.293 1.305 2.537 2.597 5.101 4.005 7.582 2.069-3.508 3.707-7.287 5.685-10.851zM64.238 11.454c.299-.016.598-.027.897-.034 1.567-.026 3.129.402 4.259 1.538 1.512 1.519 1.662 3.434 1.662 5.457-3.263.042-6.53-.003-9.793.012.101.538.202 1.054.458 1.545a4.107 4.107 0 0 0 2.455 2.04c1.269.384 2.545.159 3.686-.47.383-.26.733-.565 1.089-.859.512.293 1.03.537 1.572.771-.805 1.086-1.843 1.878-3.157 2.238-1.682.46-3.732.28-5.247-.612a5.68 5.68 0 0 1-2.64-3.572c-.448-1.803-.198-3.775.781-5.361.943-1.529 2.266-2.284 3.978-2.693zm-2.953 5.437c1.616-.013 3.232-.018 4.848-.014l3.021.002c-.295-1.24-.59-2.389-1.743-3.115-.844-.531-1.868-.612-2.839-.531-1.049.242-1.933.72-2.532 1.644-.405.626-.585 1.299-.755 2.013zM104.826 11.45c.293-.015.586-.024.88-.029 1.563-.017 3.125.447 4.241 1.588 1.467 1.501 1.603 3.417 1.596 5.399-3.249.049-6.506.01-9.756.018.043.593.147 1.103.424 1.636.512.987 1.362 1.641 2.423 1.951 1.418.417 2.709.109 3.963-.587.305-.211.578-.469.856-.715a15.08 15.08 0 0 0 1.581.718c-.85 1.117-1.907 1.927-3.28 2.274-1.707.433-3.667.267-5.19-.652-1.352-.816-2.279-2.162-2.635-3.695-.405-1.75-.123-3.763.856-5.281s2.316-2.251 4.041-2.625zm-3.057 5.437c1.548-.004 3.097-.026 4.644-.009l3.279-.002c-.34-1.275-.697-2.517-1.93-3.218-.763-.435-1.694-.509-2.556-.422-1.023.169-1.888.554-2.523 1.41-.504.677-.718 1.434-.912 2.241zM138.568 11.622c1.979-.093 3.987-.025 5.97-.019-.101 3.963-.011 7.952-.013 11.918l-2.039-.022-.002-4.071c-.974-.006-2.256-.196-3.185.025-.29.069-.342.215-.504.441-.688 1.22-1.454 2.398-2.145 3.62-.77.017-1.542.02-2.312.006.754-1.416 1.778-3.218 2.777-4.445a8.996 8.996 0 0 1-.352-.182c-.87-.481-1.537-1.254-1.792-2.223-.265-1.011-.121-2.164.421-3.062.729-1.211 1.87-1.676 3.176-1.984zm2.091 6.097c.602-.005 1.216.014 1.817-.03-.008-1.409-.005-2.819.011-4.228-1.196-.004-2.408-.036-3.602.029-.753.236-1.342.491-1.748 1.217-.27.483-.342 1.12-.16 1.644.176.508.583.864 1.063 1.081.809.366 1.752.294 2.619.287zM89.201 11.731c2.582-.093 5.186-.033 7.772-.037l-.013 11.825c-.644-.009-1.29-.037-1.928.051l-.01-10.017-1.095.044c-.977-.048-1.978.016-2.957.039-.027 2.384-.037 7.325-1.706 9.089-.833.879-1.773.97-2.91.979a31.064 31.064 0 0 0-.087-1.856c.297-.027.612-.048.901-.121 1.797-.453 1.829-6.392 1.874-7.889.018-.584-.111-1.633.161-2.108zM131.083 11.644l.264-.016c.031.043.077.079.096.129.089.233-.003 10.563-.002 11.757l-1.732.012-.127-.026c-.278-.501.001-10.345-.086-11.833.528.007 1.058-.011 1.586-.024zM129.46 7.185l1.991-.006c-.021.707-.005 1.414.006 2.121l-2.051.015c.03-.71.048-1.42.054-2.131z"/>
        </symbol>
        <symbol id="icon-facebook" viewBox="0 0 32 32">
            <path fill="#fff" d="M28.8 16.253c0-7.112-5.731-12.878-12.8-12.878S3.2 9.141 3.2 16.253c0 6.428 4.681 11.756 10.8 12.722v-8.999h-3.25v-3.723H14v-2.837c0-3.228 1.911-5.01 4.835-5.01 1.401 0 2.865.252 2.865.252v3.169h-1.614c-1.59 0-2.086.993-2.086 2.011v2.416h3.55l-.567 3.723H18v8.999c6.119-.966 10.8-6.294 10.8-12.722z" style="fill:var(--color1, #fff)"/>
        </symbol>
        <symbol id="icon-instagram" viewBox="0 0 32 32">
            <path d="M15.998 6.419c3.078 0 3.442.014 4.652.068 1.125.05 1.732.238 2.137.396.536.207.922.459 1.323.86.405.405.652.788.864 1.323.158.405.346 1.017.396 2.137.054 1.215.068 1.579.068 4.653s-.014 3.442-.068 4.653c-.05 1.125-.238 1.732-.396 2.137a3.558 3.558 0 0 1-.86 1.323 3.62 3.62 0 0 1-1.323.864c-.405.158-1.017.346-2.137.396-1.215.054-1.58.068-4.653.068s-3.442-.014-4.653-.068c-1.125-.05-1.732-.238-2.137-.396a3.558 3.558 0 0 1-1.323-.86 3.62 3.62 0 0 1-.864-1.323c-.158-.405-.346-1.017-.396-2.137-.054-1.215-.068-1.579-.068-4.653s.014-3.442.068-4.653c.05-1.125.238-1.732.396-2.137.207-.536.459-.922.86-1.323a3.62 3.62 0 0 1 1.323-.864c.405-.158 1.017-.346 2.137-.396 1.21-.054 1.575-.068 4.653-.068h.001zm0-2.074c-3.127 0-3.518.014-4.747.068-1.224.054-2.065.252-2.794.536a5.609 5.609 0 0 0-2.042 1.332 5.636 5.636 0 0 0-1.332 2.038c-.284.734-.482 1.57-.536 2.794-.054 1.233-.068 1.624-.068 4.751s.014 3.518.068 4.747c.054 1.224.252 2.065.536 2.794.297.76.688 1.404 1.332 2.042a5.637 5.637 0 0 0 2.038 1.328c.734.284 1.57.482 2.794.536 1.228.054 1.62.068 4.747.068s3.519-.014 4.747-.068c1.224-.054 2.065-.252 2.794-.536.756-.292 1.4-.688 2.038-1.328s1.035-1.282 1.328-2.038c.284-.734.482-1.57.536-2.794.054-1.228.068-1.62.068-4.747s-.014-3.518-.068-4.747c-.054-1.224-.252-2.065-.536-2.794a5.405 5.405 0 0 0-1.318-2.047 5.621 5.621 0 0 0-2.038-1.327c-.734-.284-1.57-.482-2.794-.536-1.233-.058-1.624-.072-4.751-.072l-.001.001z"/>
            <path d="M15.998 9.946a5.918 5.918 0 1 0 5.917 5.917 5.918 5.918 0 0 0-5.917-5.917zm0 9.755a3.838 3.838 0 1 1 0-7.676 3.838 3.838 0 0 1 0 7.676zM23.529 9.713a1.38 1.38 0 1 1-2.761 0 1.38 1.38 0 0 1 2.761 0z"/>
        </symbol>
        <symbol id="icon-youtube" viewBox="0 0 32 32">
            <path fill="#fff" d="M28.279 9.724a3.199 3.199 0 0 0-2.255-2.261C24.02 6.913 16 6.904 16 6.904s-8.018-.009-10.024.517a3.272 3.272 0 0 0-2.261 2.275c-.529 2.004-.534 6.162-.534 6.162s-.005 4.178.52 6.162a3.204 3.204 0 0 0 2.257 2.259c2.025.55 10.022.559 10.022.559s8.019.009 10.024-.516a3.221 3.221 0 0 0 2.262-2.257c.53-2.003.534-6.159.534-6.159s.026-4.179-.521-6.184zm-14.844 9.987.006-7.68 6.665 3.846-6.671 3.834z" style="fill:var(--color1, #fff)"/>
        </symbol>
        <symbol id="icon-close" viewBox="0 0 32 32">
            <path d="M21.589 8.459l-5.657 5.656-5.656-5.656-1.885 1.885 5.656 5.656-5.656 5.656 1.885 1.885 5.656-5.656 5.657 5.656 1.885-1.885-5.656-5.656 5.656-5.656-1.885-1.885z"></path>
        </symbol>
        <symbol id="icon-arrow" viewBox="0 0 30 32">
            <path d="M17.508 27.383l-9.158-9.158h20.45v-4.267h-20.45l9.158-9.158-3.017-3.017-14.308 14.308 14.308 14.308 3.017-3.017z"></path>
        </symbol>
    </defs>
</svg>